<mxfile host="65bd71144e">
    <diagram name="Page-1" id="-H_mtQnk-PTXWXPvYvuk">
        <mxGraphModel dx="2298" dy="974" grid="1" gridSize="10" guides="1" tooltips="1" connect="1" arrows="1" fold="1" page="1" pageScale="1" pageWidth="1169" pageHeight="827" math="0" shadow="0">
            <root>
                <mxCell id="0"/>
                <mxCell id="1" parent="0"/>
                <mxCell id="5" value="" style="" parent="1" vertex="1">
                    <mxGeometry x="40" y="40" width="330" height="130" as="geometry">
                        <mxRectangle x="-200" y="40" width="50" height="40" as="alternateBounds"/>
                    </mxGeometry>
                </mxCell>
                <mxCell id="zA23MoTUsTF4_91t8viU-2" value="MongoDB" style="shape=cylinder3;whiteSpace=wrap;html=1;boundedLbl=1;backgroundOutline=1;size=15;" parent="5" vertex="1">
                    <mxGeometry x="235" y="20" width="60" height="80" as="geometry"/>
                </mxCell>
                <mxCell id="zA23MoTUsTF4_91t8viU-3" value="pymongo-api" style="rounded=1;whiteSpace=wrap;html=1;" parent="5" vertex="1">
                    <mxGeometry x="35" y="30" width="120" height="60" as="geometry"/>
                </mxCell>
                <mxCell id="zA23MoTUsTF4_91t8viU-4" style="edgeStyle=orthogonalEdgeStyle;rounded=0;orthogonalLoop=1;jettySize=auto;html=1;exitX=1;exitY=0.5;exitDx=0;exitDy=0;entryX=0;entryY=0.5;entryDx=0;entryDy=0;entryPerimeter=0;" parent="5" source="zA23MoTUsTF4_91t8viU-3" target="zA23MoTUsTF4_91t8viU-2" edge="1">
                    <mxGeometry relative="1" as="geometry"/>
                </mxCell>
                <mxCell id="132" value="" style="startSize=0;" vertex="1" parent="1">
                    <mxGeometry x="50" y="710" width="870" height="140" as="geometry"/>
                </mxCell>
                <mxCell id="128" value="pymongo-api 1" style="rounded=1;whiteSpace=wrap;html=1;" vertex="1" parent="132">
                    <mxGeometry x="60.416666666666664" y="57" width="145" height="60" as="geometry"/>
                </mxCell>
                <mxCell id="129" value="pymongo-api 2" style="rounded=1;whiteSpace=wrap;html=1;" vertex="1" parent="132">
                    <mxGeometry x="217.5" y="57" width="145" height="60" as="geometry"/>
                </mxCell>
                <mxCell id="130" value="pymongo-api 3" style="rounded=1;whiteSpace=wrap;html=1;" vertex="1" parent="132">
                    <mxGeometry x="374.5833333333333" y="57" width="145" height="60" as="geometry"/>
                </mxCell>
                <mxCell id="251" value="pymongo-api 4" style="rounded=1;whiteSpace=wrap;html=1;" vertex="1" parent="132">
                    <mxGeometry x="531.6666666666666" y="57" width="145" height="60" as="geometry"/>
                </mxCell>
                <mxCell id="252" value="pymongo-api N" style="rounded=1;whiteSpace=wrap;html=1;" vertex="1" parent="132">
                    <mxGeometry x="688.75" y="57" width="145" height="60" as="geometry"/>
                </mxCell>
                <mxCell id="256" value="Инстанцы pymongo-api" style="text;html=1;strokeColor=none;fillColor=none;align=center;verticalAlign=middle;whiteSpace=wrap;rounded=0;fontFamily=Helvetica;fontSize=12;fontColor=rgb(0, 0, 0);startSize=0;" vertex="1" parent="132">
                    <mxGeometry x="36.25" y="10" width="193.33333333333331" height="30" as="geometry"/>
                </mxCell>
                <mxCell id="133" value="Actor" style="shape=umlActor;verticalLabelPosition=bottom;verticalAlign=top;html=1;outlineConnect=0;strokeColor=rgb(0, 0, 0);fontFamily=Helvetica;fontSize=12;fontColor=rgb(0, 0, 0);startSize=0;fillColor=rgb(255, 255, 255);" vertex="1" parent="1">
                    <mxGeometry x="110" y="360" width="30" height="60" as="geometry"/>
                </mxCell>
                <mxCell id="135" value="" style="rounded=0;whiteSpace=wrap;html=1;strokeColor=rgb(0, 0, 0);fontFamily=Helvetica;fontSize=12;fontColor=rgb(0, 0, 0);startSize=0;fillColor=rgb(255, 255, 255);" vertex="1" parent="1">
                    <mxGeometry x="290" y="360" width="100" height="60" as="geometry"/>
                </mxCell>
                <mxCell id="136" value="Front" style="text;html=1;strokeColor=none;fillColor=none;align=center;verticalAlign=middle;whiteSpace=wrap;rounded=0;fontFamily=Helvetica;fontSize=12;fontColor=rgb(0, 0, 0);startSize=0;" vertex="1" parent="1">
                    <mxGeometry x="295" y="375" width="90" height="30" as="geometry"/>
                </mxCell>
                <mxCell id="137" value="" style="endArrow=classic;html=1;fontFamily=Helvetica;fontSize=12;fontColor=rgb(0, 0, 0);startSize=0;exitX=0.5;exitY=0.5;exitDx=0;exitDy=0;exitPerimeter=0;" edge="1" parent="1" source="133" target="135">
                    <mxGeometry width="50" height="50" relative="1" as="geometry">
                        <mxPoint x="590" y="670" as="sourcePoint"/>
                        <mxPoint x="640" y="620" as="targetPoint"/>
                    </mxGeometry>
                </mxCell>
                <mxCell id="139" value="CDN" style="ellipse;shape=cloud;whiteSpace=wrap;html=1;strokeColor=rgb(0, 0, 0);fontFamily=Helvetica;fontSize=12;fontColor=rgb(0, 0, 0);startSize=0;fillColor=rgb(255, 255, 255);" vertex="1" parent="1">
                    <mxGeometry x="610" y="350" width="120" height="80" as="geometry"/>
                </mxCell>
                <mxCell id="144" value="" style="endArrow=classic;html=1;rounded=1;labelBackgroundColor=default;strokeColor=default;fontFamily=Helvetica;fontSize=12;fontColor=rgb(0, 0, 0);startSize=0;shape=connector;entryX=0.067;entryY=0.5;entryDx=0;entryDy=0;entryPerimeter=0;exitX=1;exitY=0.5;exitDx=0;exitDy=0;" edge="1" parent="1" source="135" target="139">
                    <mxGeometry width="50" height="50" relative="1" as="geometry">
                        <mxPoint x="410" y="390" as="sourcePoint"/>
                        <mxPoint x="540" y="390" as="targetPoint"/>
                    </mxGeometry>
                </mxCell>
                <mxCell id="145" value="Запрос статических данных" style="text;html=1;strokeColor=none;fillColor=none;align=center;verticalAlign=middle;whiteSpace=wrap;rounded=0;fontFamily=Helvetica;fontSize=12;fontColor=rgb(0, 0, 0);startSize=0;" vertex="1" parent="1">
                    <mxGeometry x="420" y="360" width="170" height="30" as="geometry"/>
                </mxCell>
                <mxCell id="146" value="API gateway" style="rounded=0;whiteSpace=wrap;html=1;strokeColor=rgb(0, 0, 0);fontFamily=Helvetica;fontSize=12;fontColor=rgb(0, 0, 0);startSize=0;fillColor=rgb(255, 255, 255);" vertex="1" parent="1">
                    <mxGeometry x="160" y="510" width="370" height="80" as="geometry"/>
                </mxCell>
                <mxCell id="147" value="" style="endArrow=classic;html=1;rounded=1;labelBackgroundColor=default;strokeColor=default;fontFamily=Helvetica;fontSize=12;fontColor=rgb(0, 0, 0);startSize=0;shape=connector;exitX=0.5;exitY=1;exitDx=0;exitDy=0;entryX=0.486;entryY=0;entryDx=0;entryDy=0;entryPerimeter=0;" edge="1" parent="1" source="135" target="146">
                    <mxGeometry width="50" height="50" relative="1" as="geometry">
                        <mxPoint x="350" y="650" as="sourcePoint"/>
                        <mxPoint x="370" y="760" as="targetPoint"/>
                    </mxGeometry>
                </mxCell>
                <mxCell id="149" value="consul_kv" style="rounded=1;whiteSpace=wrap;html=1;" vertex="1" parent="1">
                    <mxGeometry x="410" y="527.5" width="100" height="45" as="geometry"/>
                </mxCell>
                <mxCell id="248" value="Consul" style="rounded=1;whiteSpace=wrap;html=1;" vertex="1" parent="1">
                    <mxGeometry x="760" y="512.5" width="130" height="75" as="geometry"/>
                </mxCell>
                <mxCell id="249" value="" style="endArrow=classic;html=1;rounded=1;labelBackgroundColor=default;strokeColor=default;fontFamily=Helvetica;fontSize=12;fontColor=rgb(0, 0, 0);startSize=0;shape=connector;exitX=1;exitY=0.5;exitDx=0;exitDy=0;entryX=0;entryY=0.5;entryDx=0;entryDy=0;" edge="1" parent="1" source="149" target="248">
                    <mxGeometry width="50" height="50" relative="1" as="geometry">
                        <mxPoint x="620" y="520" as="sourcePoint"/>
                        <mxPoint x="670" y="470" as="targetPoint"/>
                    </mxGeometry>
                </mxCell>
                <mxCell id="250" value="Запрос списка сервисов" style="text;html=1;strokeColor=none;fillColor=none;align=center;verticalAlign=middle;whiteSpace=wrap;rounded=0;fontFamily=Helvetica;fontSize=12;fontColor=rgb(0, 0, 0);startSize=0;" vertex="1" parent="1">
                    <mxGeometry x="550" y="510" width="170" height="30" as="geometry"/>
                </mxCell>
                <mxCell id="254" value="" style="endArrow=classic;html=1;rounded=1;labelBackgroundColor=default;strokeColor=default;fontFamily=Helvetica;fontSize=12;fontColor=rgb(0, 0, 0);startSize=0;shape=connector;entryX=0.358;entryY=-0.005;entryDx=0;entryDy=0;entryPerimeter=0;" edge="1" parent="1" target="132">
                    <mxGeometry width="50" height="50" relative="1" as="geometry">
                        <mxPoint x="360" y="590" as="sourcePoint"/>
                        <mxPoint x="360" y="700" as="targetPoint"/>
                    </mxGeometry>
                </mxCell>
                <mxCell id="255" value="Перенаправление запроса конкретному инстанцу" style="text;html=1;strokeColor=none;fillColor=none;align=center;verticalAlign=middle;whiteSpace=wrap;rounded=0;fontFamily=Helvetica;fontSize=12;fontColor=rgb(0, 0, 0);startSize=0;" vertex="1" parent="1">
                    <mxGeometry x="360" y="630" width="300" height="30" as="geometry"/>
                </mxCell>
                <mxCell id="258" value="" style="startSize=0;strokeColor=rgb(0, 0, 0);fontFamily=Helvetica;fontSize=12;fontColor=rgb(0, 0, 0);fillColor=rgb(255, 255, 255);" vertex="1" parent="1">
                    <mxGeometry x="50" y="920" width="1070" height="520" as="geometry"/>
                </mxCell>
                <mxCell id="259" value="Слой БД (MongoDB)" style="text;html=1;strokeColor=none;fillColor=none;align=center;verticalAlign=middle;whiteSpace=wrap;rounded=0;fontFamily=Helvetica;fontSize=12;fontColor=rgb(0, 0, 0);startSize=0;" vertex="1" parent="1">
                    <mxGeometry x="55" y="930" width="140" height="30" as="geometry"/>
                </mxCell>
                <mxCell id="260" value="&lt;div style=&quot;background-color: rgb(255, 255, 255); font-family: Consolas, &amp;quot;Courier New&amp;quot;, monospace; font-size: 14px; line-height: 19px;&quot;&gt;&lt;span style=&quot;color: #800000;&quot;&gt;mongos_router&lt;/span&gt;&lt;/div&gt;" style="rounded=0;whiteSpace=wrap;html=1;strokeColor=rgb(0, 0, 0);fontFamily=Helvetica;fontSize=12;fontColor=rgb(0, 0, 0);startSize=0;fillColor=rgb(255, 255, 255);" vertex="1" parent="1">
                    <mxGeometry x="280" y="980" width="170" height="60" as="geometry"/>
                </mxCell>
                <mxCell id="262" value="&lt;div style=&quot;background-color: rgb(255, 255, 255); font-family: Consolas, &amp;quot;Courier New&amp;quot;, monospace; font-size: 14px; line-height: 19px;&quot;&gt;&lt;span style=&quot;color: #800000;&quot;&gt;configSrv&lt;/span&gt;&lt;/div&gt;" style="rounded=0;whiteSpace=wrap;html=1;strokeColor=rgb(0, 0, 0);fontFamily=Helvetica;fontSize=12;fontColor=rgb(0, 0, 0);startSize=0;fillColor=rgb(255, 255, 255);" vertex="1" parent="1">
                    <mxGeometry x="740" y="980" width="120" height="60" as="geometry"/>
                </mxCell>
                <mxCell id="263" value="" style="endArrow=classic;html=1;rounded=1;labelBackgroundColor=default;strokeColor=default;fontFamily=Helvetica;fontSize=12;fontColor=rgb(0, 0, 0);startSize=0;shape=connector;entryX=0;entryY=0.5;entryDx=0;entryDy=0;" edge="1" parent="1" source="260" target="262">
                    <mxGeometry width="50" height="50" relative="1" as="geometry">
                        <mxPoint x="670" y="1160" as="sourcePoint"/>
                        <mxPoint x="620" y="1210" as="targetPoint"/>
                    </mxGeometry>
                </mxCell>
                <mxCell id="264" value="Запрос информации о кластере" style="text;html=1;strokeColor=none;fillColor=none;align=center;verticalAlign=middle;whiteSpace=wrap;rounded=0;fontFamily=Helvetica;fontSize=12;fontColor=rgb(0, 0, 0);startSize=0;" vertex="1" parent="1">
                    <mxGeometry x="500" y="980" width="190" height="30" as="geometry"/>
                </mxCell>
                <mxCell id="265" value="" style="endArrow=classic;html=1;rounded=1;labelBackgroundColor=default;strokeColor=default;fontFamily=Helvetica;fontSize=12;fontColor=rgb(0, 0, 0);startSize=0;shape=connector;entryX=0.881;entryY=-0.025;entryDx=0;entryDy=0;entryPerimeter=0;exitX=0.881;exitY=-0.025;exitDx=0;exitDy=0;exitPerimeter=0;" edge="1" parent="1" source="132">
                    <mxGeometry width="50" height="50" relative="1" as="geometry">
                        <mxPoint x="670" y="620" as="sourcePoint"/>
                        <mxPoint x="816" y="590" as="targetPoint"/>
                    </mxGeometry>
                </mxCell>
                <mxCell id="266" value="Регистрация" style="text;html=1;strokeColor=none;fillColor=none;align=center;verticalAlign=middle;whiteSpace=wrap;rounded=0;fontFamily=Helvetica;fontSize=12;fontColor=rgb(0, 0, 0);startSize=0;" vertex="1" parent="1">
                    <mxGeometry x="820" y="620" width="90" height="30" as="geometry"/>
                </mxCell>
                <mxCell id="268" value="" style="endArrow=classic;html=1;rounded=1;labelBackgroundColor=default;strokeColor=default;fontFamily=Helvetica;fontSize=12;fontColor=rgb(0, 0, 0);startSize=0;shape=connector;entryX=0.407;entryY=0.002;entryDx=0;entryDy=0;entryPerimeter=0;exitX=0.5;exitY=1;exitDx=0;exitDy=0;" edge="1" parent="1" source="132" target="258">
                    <mxGeometry width="50" height="50" relative="1" as="geometry">
                        <mxPoint x="620" y="840" as="sourcePoint"/>
                        <mxPoint x="670" y="790" as="targetPoint"/>
                    </mxGeometry>
                </mxCell>
                <mxCell id="269" value="Запрос к БД" style="text;html=1;strokeColor=none;fillColor=none;align=center;verticalAlign=middle;whiteSpace=wrap;rounded=0;fontFamily=Helvetica;fontSize=12;fontColor=rgb(0, 0, 0);startSize=0;" vertex="1" parent="1">
                    <mxGeometry x="490" y="870" width="80" height="30" as="geometry"/>
                </mxCell>
                <mxCell id="270" value="&lt;div style=&quot;background-color: rgb(255, 255, 255); font-family: Consolas, &amp;quot;Courier New&amp;quot;, monospace; font-size: 14px; line-height: 19px;&quot;&gt;&lt;br&gt;&lt;/div&gt;" style="rounded=0;whiteSpace=wrap;html=1;strokeColor=rgb(0, 0, 0);fontFamily=Helvetica;fontSize=12;fontColor=rgb(0, 0, 0);startSize=0;fillColor=rgb(255, 255, 255);" vertex="1" parent="1">
                    <mxGeometry x="80" y="1110" width="1020" height="310" as="geometry"/>
                </mxCell>
                <mxCell id="272" value="redis" style="shape=cylinder3;whiteSpace=wrap;html=1;boundedLbl=1;backgroundOutline=1;size=15;strokeColor=rgb(0, 0, 0);fontFamily=Helvetica;fontSize=12;fontColor=rgb(0, 0, 0);startSize=0;fillColor=rgb(255, 255, 255);" vertex="1" parent="1">
                    <mxGeometry x="555" y="1135" width="60" height="260" as="geometry"/>
                </mxCell>
                <mxCell id="279" value="" style="endArrow=classic;html=1;rounded=1;labelBackgroundColor=default;strokeColor=default;fontFamily=Helvetica;fontSize=12;fontColor=rgb(0, 0, 0);startSize=0;shape=connector;exitX=0.5;exitY=1;exitDx=0;exitDy=0;entryX=0.28;entryY=0.003;entryDx=0;entryDy=0;entryPerimeter=0;" edge="1" parent="1" source="260" target="270">
                    <mxGeometry width="50" height="50" relative="1" as="geometry">
                        <mxPoint x="570" y="1220" as="sourcePoint"/>
                        <mxPoint x="620" y="1170" as="targetPoint"/>
                    </mxGeometry>
                </mxCell>
                <mxCell id="281" value="" style="rounded=0;whiteSpace=wrap;html=1;strokeColor=rgb(0, 0, 0);fontFamily=Helvetica;fontSize=12;fontColor=rgb(0, 0, 0);startSize=0;fillColor=rgb(255, 255, 255);" vertex="1" parent="1">
                    <mxGeometry x="100" y="1120" width="270" height="280" as="geometry"/>
                </mxCell>
                <mxCell id="282" value="&lt;div style=&quot;background-color: rgb(255, 255, 255); font-family: Consolas, &amp;quot;Courier New&amp;quot;, monospace; font-size: 14px; line-height: 19px;&quot;&gt;&lt;span style=&quot;color: #800000;&quot;&gt;shard1_1&lt;/span&gt;&lt;/div&gt;" style="rounded=0;whiteSpace=wrap;html=1;strokeColor=rgb(0, 0, 0);fontFamily=Helvetica;fontSize=12;fontColor=rgb(0, 0, 0);startSize=0;fillColor=rgb(255, 255, 255);" vertex="1" parent="1">
                    <mxGeometry x="230" y="1140" width="120" height="60" as="geometry"/>
                </mxCell>
                <mxCell id="283" value="&lt;div style=&quot;background-color: rgb(255, 255, 255); font-family: Consolas, &amp;quot;Courier New&amp;quot;, monospace; font-size: 14px; line-height: 19px;&quot;&gt;&lt;span style=&quot;color: #800000;&quot;&gt;shard1_2&lt;/span&gt;&lt;/div&gt;" style="rounded=0;whiteSpace=wrap;html=1;strokeColor=rgb(0, 0, 0);fontFamily=Helvetica;fontSize=12;fontColor=rgb(0, 0, 0);startSize=0;fillColor=rgb(255, 255, 255);" vertex="1" parent="1">
                    <mxGeometry x="230" y="1230" width="120" height="60" as="geometry"/>
                </mxCell>
                <mxCell id="285" value="&lt;div style=&quot;background-color: rgb(255, 255, 255); font-family: Consolas, &amp;quot;Courier New&amp;quot;, monospace; font-size: 14px; line-height: 19px;&quot;&gt;&lt;span style=&quot;color: #800000;&quot;&gt;shard1_3&lt;/span&gt;&lt;/div&gt;" style="rounded=0;whiteSpace=wrap;html=1;strokeColor=rgb(0, 0, 0);fontFamily=Helvetica;fontSize=12;fontColor=rgb(0, 0, 0);startSize=0;fillColor=rgb(255, 255, 255);" vertex="1" parent="1">
                    <mxGeometry x="230" y="1320" width="120" height="60" as="geometry"/>
                </mxCell>
                <mxCell id="286" value="Реплика" style="text;html=1;strokeColor=none;fillColor=none;align=center;verticalAlign=middle;whiteSpace=wrap;rounded=0;fontFamily=Helvetica;fontSize=12;fontColor=rgb(0, 0, 0);startSize=0;" vertex="1" parent="1">
                    <mxGeometry x="120" y="1140" width="90" height="30" as="geometry"/>
                </mxCell>
                <mxCell id="287" value="" style="rounded=0;whiteSpace=wrap;html=1;strokeColor=rgb(0, 0, 0);fontFamily=Helvetica;fontSize=12;fontColor=rgb(0, 0, 0);startSize=0;fillColor=rgb(255, 255, 255);" vertex="1" parent="1">
                    <mxGeometry x="810" y="1130" width="270" height="280" as="geometry"/>
                </mxCell>
                <mxCell id="288" value="&lt;div style=&quot;background-color: rgb(255, 255, 255); font-family: Consolas, &amp;quot;Courier New&amp;quot;, monospace; font-size: 14px; line-height: 19px;&quot;&gt;&lt;span style=&quot;color: #800000;&quot;&gt;shard2_1&lt;/span&gt;&lt;/div&gt;" style="rounded=0;whiteSpace=wrap;html=1;strokeColor=rgb(0, 0, 0);fontFamily=Helvetica;fontSize=12;fontColor=rgb(0, 0, 0);startSize=0;fillColor=rgb(255, 255, 255);" vertex="1" parent="1">
                    <mxGeometry x="940" y="1150" width="120" height="60" as="geometry"/>
                </mxCell>
                <mxCell id="289" value="&lt;div style=&quot;background-color: rgb(255, 255, 255); font-family: Consolas, &amp;quot;Courier New&amp;quot;, monospace; font-size: 14px; line-height: 19px;&quot;&gt;&lt;span style=&quot;color: #800000;&quot;&gt;shard2_2&lt;/span&gt;&lt;/div&gt;" style="rounded=0;whiteSpace=wrap;html=1;strokeColor=rgb(0, 0, 0);fontFamily=Helvetica;fontSize=12;fontColor=rgb(0, 0, 0);startSize=0;fillColor=rgb(255, 255, 255);" vertex="1" parent="1">
                    <mxGeometry x="940" y="1241" width="120" height="60" as="geometry"/>
                </mxCell>
                <mxCell id="290" value="&lt;div style=&quot;background-color: rgb(255, 255, 255); font-family: Consolas, &amp;quot;Courier New&amp;quot;, monospace; font-size: 14px; line-height: 19px;&quot;&gt;&lt;span style=&quot;color: #800000;&quot;&gt;shard2_3&lt;/span&gt;&lt;/div&gt;" style="rounded=0;whiteSpace=wrap;html=1;strokeColor=rgb(0, 0, 0);fontFamily=Helvetica;fontSize=12;fontColor=rgb(0, 0, 0);startSize=0;fillColor=rgb(255, 255, 255);" vertex="1" parent="1">
                    <mxGeometry x="940" y="1330" width="120" height="60" as="geometry"/>
                </mxCell>
                <mxCell id="291" value="" style="endArrow=classic;html=1;rounded=1;labelBackgroundColor=default;strokeColor=default;fontFamily=Helvetica;fontSize=12;fontColor=rgb(0, 0, 0);startSize=0;shape=connector;exitX=0.996;exitY=0.465;exitDx=0;exitDy=0;exitPerimeter=0;" edge="1" parent="1" source="281">
                    <mxGeometry width="50" height="50" relative="1" as="geometry">
                        <mxPoint x="570" y="1220" as="sourcePoint"/>
                        <mxPoint x="550" y="1250" as="targetPoint"/>
                    </mxGeometry>
                </mxCell>
                <mxCell id="293" value="" style="endArrow=classic;html=1;rounded=1;labelBackgroundColor=default;strokeColor=default;fontFamily=Helvetica;fontSize=12;fontColor=rgb(0, 0, 0);startSize=0;shape=connector;" edge="1" parent="1">
                    <mxGeometry width="50" height="50" relative="1" as="geometry">
                        <mxPoint x="811.0800000000003" y="1250" as="sourcePoint"/>
                        <mxPoint x="620" y="1250" as="targetPoint"/>
                    </mxGeometry>
                </mxCell>
                <mxCell id="294" value="Запрос к КЭШУ" style="text;html=1;strokeColor=none;fillColor=none;align=center;verticalAlign=middle;whiteSpace=wrap;rounded=0;fontFamily=Helvetica;fontSize=12;fontColor=rgb(0, 0, 0);startSize=0;" vertex="1" parent="1">
                    <mxGeometry x="385" y="1210" width="145" height="30" as="geometry"/>
                </mxCell>
                <mxCell id="295" value="Запрос к КЭШУ" style="text;html=1;strokeColor=none;fillColor=none;align=center;verticalAlign=middle;whiteSpace=wrap;rounded=0;fontFamily=Helvetica;fontSize=12;fontColor=rgb(0, 0, 0);startSize=0;" vertex="1" parent="1">
                    <mxGeometry x="630" y="1211" width="145" height="30" as="geometry"/>
                </mxCell>
                <mxCell id="296" value="Реплика" style="text;html=1;strokeColor=none;fillColor=none;align=center;verticalAlign=middle;whiteSpace=wrap;rounded=0;fontFamily=Helvetica;fontSize=12;fontColor=rgb(0, 0, 0);startSize=0;" vertex="1" parent="1">
                    <mxGeometry x="830" y="1155" width="90" height="30" as="geometry"/>
                </mxCell>
            </root>
        </mxGraphModel>
    </diagram>
</mxfile>